<svg width="127" height="30" viewBox="0 0 127 30" fill="none" xmlns="http://www.w3.org/2000/svg">
<path d="M13.266 15.07V13.838L25.96 22H17.776L6.996 14.52L16.94 7.92H24.772L13.266 15.07ZM1.54 7.92H7.04V22H1.54V7.92ZM32.7963 22.308C31.2123 22.308 29.8043 22.088 28.5723 21.648C27.3403 21.1933 26.365 20.5407 25.6463 19.69C24.9423 18.8393 24.5903 17.8127 24.5903 16.61C24.5903 15.3487 24.9423 14.2927 25.6463 13.442C26.365 12.5913 27.3403 11.9533 28.5723 11.528C29.8043 11.1027 31.2123 10.89 32.7963 10.89C34.5563 10.89 36.0743 11.132 37.3503 11.616C38.641 12.0853 39.631 12.7527 40.3203 13.618C41.0243 14.4687 41.3763 15.466 41.3763 16.61C41.3763 17.4607 41.1783 18.238 40.7823 18.942C40.3863 19.6313 39.8143 20.2327 39.0663 20.746C38.3183 21.2447 37.4163 21.6333 36.3603 21.912C35.3043 22.176 34.1163 22.308 32.7963 22.308ZM34.7763 18.964C35.891 18.964 36.9103 18.898 37.8343 18.766C38.773 18.6193 39.521 18.3773 40.0783 18.04C40.6503 17.7027 40.9363 17.226 40.9363 16.61C40.9363 15.9793 40.6503 15.4953 40.0783 15.158C39.521 14.8207 38.773 14.586 37.8343 14.454C36.9103 14.322 35.891 14.256 34.7763 14.256C33.2803 14.256 32.1216 14.454 31.3003 14.85C30.479 15.2313 30.0683 15.818 30.0683 16.61C30.0683 17.1233 30.2516 17.556 30.6183 17.908C30.985 18.26 31.5203 18.524 32.2243 18.7C32.9283 18.876 33.779 18.964 34.7763 18.964ZM40.9363 11.22H46.2163V22H41.2443C41.2443 22 41.215 21.8313 41.1563 21.494C41.1123 21.1567 41.061 20.6727 41.0023 20.042C40.9583 19.4113 40.9363 18.6707 40.9363 17.82V11.22ZM47.7068 11.22H52.9868V22H47.7068V11.22ZM58.6628 15.29C57.7095 15.29 56.8368 15.378 56.0448 15.554C55.2528 15.73 54.5781 15.9427 54.0208 16.192C53.4635 16.4267 53.0455 16.6613 52.7668 16.896L52.7228 15.84C52.7668 15.532 52.8841 15.1727 53.0748 14.762C53.2655 14.3367 53.5221 13.904 53.8448 13.464C54.1675 13.0093 54.5635 12.5913 55.0328 12.21C55.5021 11.814 56.0375 11.4987 56.6388 11.264C57.2548 11.0147 57.9295 10.89 58.6628 10.89V15.29ZM59.4933 18.128H64.3553C64.5606 18.5093 64.9493 18.7733 65.5213 18.92C66.1079 19.0667 66.9439 19.14 68.0293 19.14C68.8653 19.14 69.4813 19.096 69.8773 19.008C70.2879 18.92 70.5519 18.8027 70.6693 18.656C70.8013 18.5093 70.8673 18.3553 70.8673 18.194C70.8673 17.9447 70.7279 17.776 70.4493 17.688C70.1853 17.5853 69.7306 17.5267 69.0853 17.512C68.4399 17.4827 67.5526 17.468 66.4233 17.468C65.3526 17.468 64.3919 17.424 63.5413 17.336C62.7053 17.2333 61.9939 17.0793 61.4073 16.874C60.8206 16.654 60.3733 16.3533 60.0653 15.972C59.7573 15.5907 59.6033 15.114 59.6033 14.542C59.6033 13.838 59.8306 13.2513 60.2853 12.782C60.7399 12.298 61.3559 11.924 62.1333 11.66C62.9106 11.3813 63.8053 11.1833 64.8173 11.066C65.8439 10.9487 66.9146 10.89 68.0293 10.89C69.8773 10.89 71.3879 11.0807 72.5613 11.462C73.7346 11.8287 74.5999 12.3273 75.1573 12.958C75.7146 13.5887 75.9859 14.3 75.9713 15.092H71.2413C71.0799 14.7107 70.7719 14.4467 70.3173 14.3C69.8773 14.1533 69.1146 14.08 68.0293 14.08C67.0026 14.08 66.2546 14.1607 65.7853 14.322C65.3306 14.4687 65.1033 14.7107 65.1033 15.048C65.1033 15.268 65.2133 15.4367 65.4333 15.554C65.6679 15.6567 66.1006 15.73 66.7313 15.774C67.3766 15.818 68.3153 15.84 69.5473 15.84C70.3979 15.84 71.2266 15.8693 72.0333 15.928C72.8546 15.9867 73.5879 16.1113 74.2333 16.302C74.8933 16.4927 75.4139 16.786 75.7953 17.182C76.1766 17.578 76.3673 18.1207 76.3673 18.81C76.3673 19.646 76.0226 20.328 75.3333 20.856C74.6586 21.3693 73.6979 21.7433 72.4513 21.978C71.2046 22.2127 69.7306 22.33 68.0293 22.33C66.5479 22.33 65.2939 22.2347 64.2673 22.044C63.2553 21.8533 62.4266 21.604 61.7813 21.296C61.1359 20.9733 60.6373 20.6287 60.2853 20.262C59.9479 19.8807 59.7206 19.5067 59.6033 19.14C59.5006 18.7587 59.4639 18.4213 59.4933 18.128ZM85.6088 22.308C84.0248 22.308 82.6168 22.088 81.3848 21.648C80.1528 21.1933 79.1775 20.5407 78.4588 19.69C77.7548 18.8393 77.4028 17.8127 77.4028 16.61C77.4028 15.3487 77.7548 14.2927 78.4588 13.442C79.1775 12.5913 80.1528 11.9533 81.3848 11.528C82.6168 11.1027 84.0248 10.89 85.6088 10.89C87.3688 10.89 88.8868 11.132 90.1628 11.616C91.4535 12.0853 92.4435 12.7527 93.1328 13.618C93.8368 14.4687 94.1888 15.466 94.1888 16.61C94.1888 17.4607 93.9908 18.238 93.5948 18.942C93.1988 19.6313 92.6268 20.2327 91.8788 20.746C91.1308 21.2447 90.2288 21.6333 89.1728 21.912C88.1168 22.176 86.9288 22.308 85.6088 22.308ZM87.5888 18.964C88.7035 18.964 89.7228 18.898 90.6468 18.766C91.5855 18.6193 92.3335 18.3773 92.8908 18.04C93.4628 17.7027 93.7488 17.226 93.7488 16.61C93.7488 15.9793 93.4628 15.4953 92.8908 15.158C92.3335 14.8207 91.5855 14.586 90.6468 14.454C89.7228 14.322 88.7035 14.256 87.5888 14.256C86.0928 14.256 84.9341 14.454 84.1128 14.85C83.2915 15.2313 82.8808 15.818 82.8808 16.61C82.8808 17.1233 83.0641 17.556 83.4308 17.908C83.7975 18.26 84.3328 18.524 85.0368 18.7C85.7408 18.876 86.5915 18.964 87.5888 18.964ZM93.7488 11.22H99.0288V22H94.0568C94.0568 22 94.0275 21.8313 93.9688 21.494C93.9248 21.1567 93.8735 20.6727 93.8148 20.042C93.7708 19.4113 93.7488 18.6707 93.7488 17.82V11.22Z" fill="#1A1A18"/>
<rect x="103" width="24" height="30" rx="6" fill="#1A1A18"/>
<path d="M117.688 18.678V22H112.1V18.678H117.688Z" fill="#C8FF00"/>
</svg>
